<svg xmlns="http://www.w3.org/2000/svg" width="100%" height="100%" fill="none" viewBox="0 0 145 145">
  <path fill="#C89424" d="M106.917 122.438c1.009.458 2.065.827 3.181 1.052L102.35 145h9.052l8.208-22.787c4.076-2.002 7.126-5.757 8.054-10.317l4.558-17.806H145V81.362h-4.472a10.643 10.643 0 0 0-10.436-8.485c-3.433 0-6.453 1.647-8.4 4.158l-10.916 17.284c-.554.085-34.365 8.583-34.365 8.583s-1.585.526-2.318.907l-7.764-7.725-4.52 4.501 7.76 7.73c-.766 1.459-1.239 3.101-1.239 4.866v16.13L59.824 145h9.682l16.067-29.63 21.344 7.068Z"/>
  <path fill="#000" d="M132.222 94.09H145V81.362h-4.472l-8.306 12.728Z" opacity=".3"/>
  <path fill="#fff" d="M119.609 122.213c4.076-2.002 7.126-5.757 8.055-10.317l4.557-17.806s-10.529 0-10.529-17.055l-.077-.047-10.84 17.33c-.558.086 8.834 27.895 8.834 27.895Zm-2.095 5.817L111.401 145h-9.051l6.112-16.97h9.052Zm-43.408 8.485-4.6 8.485h-9.682l4.6-8.485h9.682Z" opacity=".4"/>
  <rect width="24.573" height="4.154" fill="#0B9472" rx="2.077" transform="rotate(32.894 -91.31 235.11) skewX(.153)"/>
  <path fill="#0B9472" d="M110.207 58.904a1.033 1.033 0 0 1 1.125.932l2.858 30.733a1.032 1.032 0 1 1-2.057.192l-2.859-30.732a1.034 1.034 0 0 1 .933-1.125Z"/>
  <path fill="#D0A180" fill-rule="evenodd" d="M62.63 16.806c2.836.761 5.427.824 6.476.271 2.631-1.385.125-11.086-3.151-14.338C62.678-.512 50.963.644 52.557 8.312c.553 2.661 2.399 4.698 4.683 6.165l.77 14.323 9.055-2.265-4.436-9.73Z" clip-rule="evenodd"/>
  <path fill="#191847" fill-rule="evenodd" d="M60.372 7.248s.984-2.3 1.825-3.026c3.998-.938 4.272-1.72 3.629-3.961-.766-.269-3.242-.423-5.841.01-1.395-.022-2.912.427-4.226 1.374-1.687.94-2.934 2.366-3.058 4.484-1.33 4.592 1.732 8.26 4.665 9.041.46-.911.84-1.778 1.166-2.598a2.207 2.207 0 0 1-1.116-1.339c-.334-1.165.408-2.364 1.659-2.676.092-.023 1.205-1.297 1.297-1.309.028.098-.038-.114 0 0Z" clip-rule="evenodd"/>
  <path fill="#997659" fill-rule="evenodd" d="m62.34 57.98 19.172 45.23 12.858 38.238h5.078L79.79 57.98H62.34Z" clip-rule="evenodd"/>
  <path fill="#D0A180" fill-rule="evenodd" d="M58.48 57.98c-.204 15.894-3.181 37.293-3.657 38.284-.476.99-32.841 25.198-32.841 25.198l3.497 3.488s38.189-20.755 39.956-23.523c1.767-2.768 7.52-28.242 12.14-43.447H58.48Z" clip-rule="evenodd"/>
  <path fill="#738AAE" fill-rule="evenodd" d="M22.526 120.752a.74.74 0 0 0-.941-.47c-.784.264-1.978.709-2.499 1.117-.81.633-2.136 2.098-2.136 2.098l14.162 15.731s2.727-1.087 1.71-2.544c-1.015-1.457-1.662-2.44-1.662-2.44l-3.094-10.074c-.056-.182-.262-.286-.456-.228l-1.675.495s-1.713-.744-2.402-1.509c-.43-.479-.795-1.488-1.007-2.176Zm70.788 18.5c-.385-.16-.844 0-.99.37-.286.73-.688 1.868-.688 2.502 0 .985.352 2.874.352 2.874h22.031s.859-2.646-.991-2.857a139.38 139.38 0 0 1-3.074-.381l-10.269-4.267a.37.37 0 0 0-.48.179l-.67 1.515s-1.712.745-2.783.745c-.671 0-1.736-.39-2.438-.68Z" clip-rule="evenodd"/>
  <path fill="#041259" fill-rule="evenodd" d="m74.49 136.926 24.142-2.442-17.891-77.088H59.118l15.373 79.53Z" clip-rule="evenodd"/>
  <path fill="#2337A2" fill-rule="evenodd" d="m26.974 115.834 15.835 17.471s25.02-25.469 29.172-33.237c4.154-7.769 7.467-42.088 7.467-42.088H55.105s-1.81 30.192-2.44 31.597c-.63 1.406-25.69 26.257-25.69 26.257Z" clip-rule="evenodd"/>
  <path fill="#D0A180" fill-rule="evenodd" d="m106.119 56.099-13.856-6.38-1.532 6.697 13.037 2.697c4.148 3.197 6.365 4.45 6.654 3.757.243-.584-.118-1.034-.451-1.448-.259-.323-.501-.624-.426-.95.17-.745 2.492-1.052 4.71-1.255 2.216-.204 1.408-1.006.796-1.367-2.468-.878-5.445-1.462-8.932-1.751ZM44.566 81.49c.724-2.317.639-23.726.639-23.726l8.044-1.294s-3.214 23.63-3.548 25.098c-.435 1.907 1.363 4.279 2.582 5.887.189.249.364.48.514.687-1.135.717-1.844.193-2.591-.36-.845-.623-1.738-1.282-3.35-.232-.623.406-1.198.859-1.761 1.302-1.944 1.53-3.73 2.935-6.73 1.824-.476-.176-1.122-1.028-.123-1.941 2.488-2.275 5.969-6.112 6.324-7.245Z" clip-rule="evenodd"/>
  <path fill="#334C72" fill-rule="evenodd" d="m62.11 22.563 3.227-1.08C79.555 29.39 88.23 47.648 105.268 55.27l-2.846 4.806c-26.816 1.291-37.72-20.925-40.311-37.513Z" clip-rule="evenodd"/>
  <path fill="#CDDAE7" fill-rule="evenodd" d="m54.97 63.914 29.432-4.845c1.345-.222.75-1.99.383-2.872-4.235-10.172-15.14-20.094-17.974-35.1l-8.724.157c-5.034 11.682-5.014 25.043-3.117 42.66Z" clip-rule="evenodd"/>
  <path fill="#738BAE" fill-rule="evenodd" d="M53.083 71.989c-.763 3.179-1.572 5.976-2.42 8.162l-6.312 1.04c-4.545-20.356.794-37.474 5.958-48.115-1.564.152-3.072-.221-4.234-1.559-4.089-4.708-3.51-7.766-.373-9.256 1.725-.82 3.507-.747 5.64-.661 1.746.07 3.726.151 6.104-.24h.002a4.5 4.5 0 0 1 .638-.063l2.845-.313s18.262 34.25 15.415 47.175l-23.263 3.83Z" clip-rule="evenodd"/>
  <path fill="#000" fill-opacity=".1" fill-rule="evenodd" d="M53.083 71.988c1.002-4.171 1.925-8.999 2.753-13.964 1.612 5.053 3.652 10.058 5.942 12.533l-8.695 1.431Z" clip-rule="evenodd"/>
  <path fill="#F2C194" fill-rule="evenodd" d="M45.88 34.857c1.904 1.224 3.774 1.815 4.652 1.574 2.202-.606 2.404-9.198.7-12.586-1.703-3.387-10.459-4.864-10.9 1.848-.153 2.33.764 4.408 2.118 6.104l-2.428 12.078h7.054l-1.195-9.018Z" clip-rule="evenodd"/>
  <path fill="#191847" fill-rule="evenodd" d="M47.212 19.94c-.93-.162-3.433-.274-3.895-.274-.295 0-.615.072-.79-.217-.143-.237-.09-.637-.133-.912-.05-.319-.12-.633-.191-.948a10.035 10.035 0 0 0-.938-2.543c-.805-1.498-1.984-2.671-3.473-3.354-1.644-.754-3.504-.927-5.272-.774-1.892.164-3.605.83-5.39 1.457-1.703.598-3.486.833-5.267.541-1.794-.294-3.15-1.331-4.662-2.316-1.55-1.008-3.32-1.667-5.15-1.516-1.71.142-3.286.895-4.7 1.9-1.322.942-2.413 2.075-3.029 3.669-.663 1.714-.662 3.596.428 5.112 1.58 2.196 4.512 2.764 6.952 2.707a12.542 12.542 0 0 0 4.13-.807c1.777-.667 3.312-1.797 4.975-2.714a12.53 12.53 0 0 1 2.431-1.039c.82-.247 1.629-.36 2.371.168.786.56 1.49 1.11 2.388 1.46a7.272 7.272 0 0 0 2.694.515c1.788-.014 3.55-.608 5.285-1.006 1.416-.325 2.93-.648 4.374-.336.602.13 1.481.398 1.699 1.066-3.66.708-5.099 5.539-4.067 9.085.558 1.914 3.906 4.152 5.207 3.145.825-.637.324-1.474 0-2.026-.62-1.058-.833-2.417.316-3.154.99-.635 2.031.873 2.051.872.272-.023 2.625-1.443 4.245-3.514 1.599.101 1.841-1.024 1.46-1.944-.382-.92-2.765-2.077-4.05-2.302Z" clip-rule="evenodd"/>
  <path fill="#997659" fill-rule="evenodd" d="m38.257 69.906 21.84 38.962 16.374 32.938h3.527l-27.435-71.9H38.257Z" clip-rule="evenodd"/>
  <path fill="#86617E" fill-rule="evenodd" d="M75.085 139.914a.538.538 0 0 0-.745.318c-.215.629-.518 1.609-.518 2.156 0 .848.265 2.476.265 2.476h16.578s.646-2.28-.747-2.462c-1.392-.181-2.312-.328-2.312-.328l-7.727-3.675c-.14-.067-.303.003-.361.154l-.504 1.305s-1.29.641-2.095.641c-.505 0-1.305-.335-1.834-.585Z" clip-rule="evenodd"/>
  <path fill="#928864" fill-rule="evenodd" d="m71.924 136.531 6.802-2.195s-4.47-14.258-10.957-31.381c-6.487-17.123-13.934-33.049-13.934-33.049h-19.21s8.28 20.145 17.554 36.609c9.275 16.463 19.745 30.016 19.745 30.016Z" clip-rule="evenodd"/>
  <path fill="#F2C194" fill-rule="evenodd" d="M36.822 69.906c-2.061 13.692-6.037 31.184-6.412 31.724-.25.359-9.255 3.579-27.015 9.659l.762 3.318c21.178-3.261 32.337-5.79 33.477-7.589 1.71-2.698 10.249-24.014 13.556-37.112H36.822Z" clip-rule="evenodd"/>
  <path fill="#BDB394" fill-rule="evenodd" d="m9.638 108.42 1.342 5.345c15.84 1.482 25.546.411 29.117-3.214 3.57-3.624 7.64-17.173 12.21-40.645H33.989c-2.894 19.22-4.513 29.234-4.855 30.041-.342.807-6.84 3.631-19.496 8.473Z" clip-rule="evenodd"/>
  <path fill="#86617E" fill-rule="evenodd" d="M4.742 110.651c.077-.329-.11-.668-.423-.728-.618-.117-1.576-.264-2.08-.17-.783.148-2.239.709-2.239.709l2.879 17.42s2.216.283 2.142-1.211c-.074-1.495-.099-2.488-.099-2.488l2.05-8.757a.29.29 0 0 0-.205-.353l-1.291-.303s-.816-1.244-.956-2.09c-.088-.53.082-1.43.222-2.029Z" clip-rule="evenodd"/>
  <path fill="#F2C194" fill-rule="evenodd" d="m71.874 73.594-8.326-8.667-2.766 5.106 8.659 5.447c2.17 3.65 3.445 5.226 3.825 4.73.32-.418.173-.876.038-1.298-.105-.329-.203-.635-.069-.884.308-.568 2.046-.243 3.684.14 1.637.385 1.258-.473.91-.921-1.547-1.332-3.532-2.55-5.955-3.653ZM22.797 86.187c.861-1.865 3.794-20.037 3.794-20.037l6.142.025s-5.688 19.596-6.142 20.795c-.589 1.557.412 3.82 1.09 5.355.105.237.203.457.285.654-.941.45-1.394-.093-1.87-.666-.539-.647-1.109-1.332-2.45-.666-.518.258-1.009.562-1.487.859-1.655 1.026-3.175 1.97-5.243.608-.328-.216-.688-1.029.18-1.664 2.163-1.583 5.28-4.352 5.7-5.263Z" clip-rule="evenodd"/>
  <path fill="#41283B" fill-rule="evenodd" d="m44.046 38.648 2.542-.465c4.376 11.664 12.015 22.262 22.919 31.794l-8.24 10.682c-10.902-13.574-17.622-27.577-17.221-42.01Z" clip-rule="evenodd"/>
  <path fill="#E9D9E5" fill-rule="evenodd" d="M32.967 72.73h22.632s-7.865-20.406-7.865-34.669l-6.827-1.085c-5.366 9.208-6.88 20.544-7.94 35.754Z" clip-rule="evenodd"/>
  <path fill="#86617E" fill-rule="evenodd" d="M22.68 83.08c2.475-29.797 18.077-46.104 18.077-46.104l.005.005.003-.005h.446c.8.03 2.436.106 2.436.106l1.65 5.03c.262 9.2 3.057 37.08 3.057 37.08H33.54a79.53 79.53 0 0 0 .17 3.887H22.68Z" clip-rule="evenodd"/>
  <path fill="#000" fill-opacity=".1" fill-rule="evenodd" d="M33.542 79.315a85.236 85.236 0 0 1 1.117-15.524c.404 5.614 1.248 12.367 3.01 15.524h-4.127Z" clip-rule="evenodd"/>
  <path fill="#fff" fill-opacity=".2" fill-rule="evenodd" d="m36.82 69.593 7.316-3.629v3.63h-7.315Z" clip-rule="evenodd"/>
  <path fill="#492D19" d="M64.608 117.832a9.639 9.639 0 0 0-1.658 5.418V145h4.819v-7.18l4.82-4.903h16.866V145h4.82v-6.993l6.298-8.848c.574-1.041.93-2.218.93-3.492h3.615c3.327 0 6.023-2.704 6.023-6.042a6.04 6.04 0 0 0-4.831-5.921c0-.041.012-.079.012-.12 0-4.005-4.819-7.25-9.638-7.25-2.901 0-5.785 1.189-7.634 2.999l-4.414 4.251H72.588c-.877 0-1.708.154-2.515.374a3.612 3.612 0 0 0-3.509-2.791 3.621 3.621 0 0 0-1.956 6.665Z"/>
  <path fill="#000" d="M91.864 107.465v2.494a3.621 3.621 0 0 0 3.615 3.625 3.621 3.621 0 0 0 3.614-3.625v-3.347a11.014 11.014 0 0 0-2.41-.278c-1.689 0-3.344.437-4.819 1.131Z" opacity=".3"/>
  <path fill="#fff" d="M72.629 132.917h16.826V145h4.82v-6.994l6.298-8.847c.573-1.042.93-2.219.93-3.492h3.087c1.657 0 2.183-.261 2.183-.261 2.518-.725 4.368-3.023 4.368-5.781 0-2.738-1.829-5.022-4.318-5.761-.171-.053-.335-.123-.513-.16 0-.041.012-.079.012-.121 0-3.327-3.337-6.102-7.229-6.955v3.33a3.621 3.621 0 0 1-3.614 3.625 3.621 3.621 0 0 1-3.614-3.625v13.292a4.825 4.825 0 0 1-4.82 4.834H77.42l-4.79 4.833Z" opacity=".4"/>
  <rect width="25.849" height="3.406" fill="#BC5757" rx="1.703" transform="matrix(.78832 .61564 -.6131 .78971 83.74 110.994)"/>
  <rect width="38.588" height="1.442" fill="#BC5757" rx=".721" transform="matrix(.27952 .96032 -.95955 .28094 74.17 77)"/>
</svg>
