<svg xmlns="http://www.w3.org/2000/svg" width="109" height="97" fill="none" viewBox="0 0 109 97">
  <path fill="#FFE589" d="M40.777 14.944c-1.353-1.833-4.148.156-2.885 2.056.33.496.693.975 1.034 1.438 4.166 5.571 6.324 12.407 8.185 19.137.453 1.672.895 3.41.375 5.014.744-4.367.263-8.88-.86-13.17-1.125-4.29-2.875-8.363-4.68-12.413a11.283 11.283 0 0 0-1.169-2.062ZM13.745 26.733c-2.795-.083-3.164 4.162-.369 4.385.733.061 1.476.078 2.18.095 8.605.234 16.745 3.343 24.567 6.685 1.918.82 3.913 1.739 5.032 3.494-3.528-4.073-8.169-7.054-13.105-9.249-4.937-2.195-10.198-3.632-15.453-4.975a13.56 13.56 0 0 0-2.852-.435Zm.777 10.419c-1.778.067-1.375 2.58.414 2.596.464 0 .934 0 1.375-.039 5.43-.217 10.992 1.276 16.382 2.92 1.325.4 2.722.857 3.684 1.843a29.57 29.57 0 0 0-9.572-4.897 74.371 74.371 0 0 0-10.42-2.284 9.458 9.458 0 0 0-1.863-.14ZM50.84 83.9c.504 1.7 2.852.686 2.421-1.041-.111-.451-.251-.897-.38-1.32-1.56-5.187-1.487-10.926-1.23-16.536.067-1.382.162-2.842.883-4.017a29.28 29.28 0 0 0-2.381 10.457 72.36 72.36 0 0 0 .363 10.625 9.34 9.34 0 0 0 .325 1.833ZM17.754 12.588c-1.068-.184-1.146 1.365-.084 1.604.28.062.56.106.827.15 3.271.558 6.402 2.151 9.416 3.817.775.352 1.45.892 1.962 1.571a18 18 0 0 0-5.093-4.14 44.161 44.161 0 0 0-5.932-2.68 5.636 5.636 0 0 0-1.096-.322ZM1.26 53.688c-2.71 1.392-.418 5.209 2.366 3.944.727-.334 1.437-.708 2.119-1.059 8.28-4.278 17.89-5.855 27.395-7.07 2.32-.295 4.797-.557 6.944.357-5.854-1.644-12.093-1.783-18.12-1.08-6.027.701-11.892 2.2-17.695 3.788a16.07 16.07 0 0 0-3.008 1.12Zm7.744 14.858c-1.945 1.81 1.118 3.95 3.137 2.229.559-.452 1.045-.93 1.531-1.388 5.938-5.57 13.782-9.504 21.592-13.148 1.918-.897 9.812-1.805 11.914-1.755-5.5.49-16.738 2.229-21.737 4.457a120.482 120.482 0 0 0-14.178 7.934 14.875 14.875 0 0 0-2.259 1.671Zm13.899 23.712c-.56 2.59 3.148 2.63 3.84.039.18-.674.325-1.36.465-2.011 1.716-7.928 5.915-15.628 10.265-23.049 1.068-1.822 7.039-7.042 8.8-8.195-4.25 3.52-12.518 11.298-15.336 15.99a120.152 120.152 0 0 0-7.145 14.557 15.2 15.2 0 0 0-.889 2.669ZM50.874 1.222c-1.33-2.696-5.121-.479-3.913 2.284.313.725.665 1.432 1 2.106 4.087 8.24 5.49 17.762 6.542 27.127.257 2.296.48 4.747-.459 6.859 1.71-5.767 1.94-11.923 1.348-17.884-.593-5.962-1.985-11.773-3.461-17.528a15.745 15.745 0 0 0-1.057-2.964Zm16.443 13.722c1.353-1.833 4.148.156 2.885 2.056-.33.496-.694.975-1.035 1.438-4.165 5.571-6.328 12.407-8.185 19.137-.458 1.672-.9 3.41-.38 5.014-.743-4.367-.257-8.88.867-13.17 1.123-4.29 2.873-8.39 4.68-12.441.317-.716.709-1.398 1.168-2.034Zm27.026 11.789c2.795-.083 3.17 4.162.369 4.385-.732.061-1.47.078-2.175.095-8.61.234-16.745 3.343-24.566 6.685-1.918.82-3.914 1.739-5.032 3.494 3.522-4.073 8.163-7.054 13.105-9.249 4.942-2.195 10.198-3.627 15.43-4.97a13.557 13.557 0 0 1 2.869-.44Zm-.772 10.419c1.773.067 1.376 2.58-.413 2.596-.464 0-.934 0-1.381-.039-5.429-.217-10.986 1.276-16.376 2.92-1.325.4-2.723.857-3.684 1.843a29.57 29.57 0 0 1 9.571-4.897 74.197 74.197 0 0 1 10.422-2.284 9.457 9.457 0 0 1 1.861-.14Zm-3.237-24.564c1.074-.184 1.152 1.365.09 1.604-.28.062-.56.106-.833.15-3.27.558-6.396 2.151-9.41 3.817a5.084 5.084 0 0 0-1.962 1.571 17.93 17.93 0 0 1 5.093-4.14 44.099 44.099 0 0 1 5.927-2.68c.353-.142.72-.25 1.095-.322ZM62.525 87.115c-.24 1.06-1.71.558-1.515-.557a15.5 15.5 0 0 1 .174-.824c.749-3.22.475-6.714.1-10.123a5.113 5.113 0 0 0-.699-2.413 17.893 17.893 0 0 1 1.868 6.296c.224 2.156.29 4.325.195 6.49a5.82 5.82 0 0 1-.123 1.132Zm27.127-7.003c.833 1.41-1.213 1.31-2.113-.1a18.91 18.91 0 0 1-.665-1.114c-2.539-4.307-6.407-8.569-10.299-12.686a14.266 14.266 0 0 0-3.198-2.747 50.337 50.337 0 0 1 8.386 7.132c2.5 2.607 4.708 5.32 6.872 8.033.373.47.712.966 1.017 1.482Zm-74.235 0c-.833 1.41 1.219 1.31 2.119-.1.235-.368.453-.735.66-1.114 2.538-4.307 6.407-8.569 10.303-12.686a14.237 14.237 0 0 1 3.193-2.747 50.792 50.792 0 0 0-8.386 7.132c-2.5 2.607-4.708 5.32-6.866 8.033-.375.47-.717.966-1.023 1.482Zm27.149 7.003c.24 1.06 1.705.558 1.515-.557-.05-.284-.117-.557-.179-.824-.743-3.22-.475-6.714-.095-10.123a5.18 5.18 0 0 1 .694-2.413 17.881 17.881 0 0 0-1.868 6.296 44.24 44.24 0 0 0-.201 6.49c.008.381.053.76.134 1.132ZM81.77 23.173c1.067-.19 1.145 1.365.083 1.6-.28.06-.56.11-.827.155-3.271.557-6.402 2.15-9.415 3.811a5.185 5.185 0 0 0-1.963 1.571 17.984 17.984 0 0 1 5.093-4.134 44.906 44.906 0 0 1 5.932-2.685c.354-.143.721-.25 1.096-.318ZM71.806 2.392c.923-.557 1.577.841.682 1.454-.24.162-.48.312-.715.452-2.824 1.732-5.127 4.379-7.296 7.042a5.177 5.177 0 0 0-1.236 2.19 17.991 17.991 0 0 1 3.176-5.734A44.19 44.19 0 0 1 70.889 3.1a6.09 6.09 0 0 1 .917-.708Zm35.027 51.296c2.711 1.392.419 5.209-2.365 3.944-.727-.334-1.442-.708-2.119-1.059-8.286-4.278-17.89-5.855-27.395-7.07-2.32-.295-4.797-.557-6.944.357 5.854-1.644 12.087-1.783 18.12-1.08 6.032.701 11.886 2.2 17.695 3.788 1.037.273 2.045.648 3.008 1.12ZM99.1 68.546c1.946 1.81-1.117 3.95-3.136 2.229-.559-.452-1.045-.93-1.532-1.388-5.954-5.576-13.781-9.526-21.608-13.17-1.918-.897-9.812-1.805-11.92-1.755 5.507.49 16.745 2.228 21.743 4.457 4.9 2.323 9.637 4.974 14.178 7.934.811.49 1.573 1.058 2.276 1.693Zm-22.966 26.67c.24 2.641-3.456 2.229-3.813-.44-.095-.69-.151-1.387-.213-2.05-.704-8.084-3.913-16.246-7.268-24.152-.833-1.939-6.1-7.867-7.704-9.226 3.774 4.023 10.997 12.77 13.205 17.778a119.947 119.947 0 0 1 5.261 15.332c.263.901.44 1.825.532 2.758Z"/>
</svg>
