<svg xmlns="http://www.w3.org/2000/svg" width="158" height="146" fill="none" viewBox="0 0 158 146">
  <path fill="#D0A180" fill-rule="evenodd" d="M72.83 17.082c2.845.762 5.444.824 6.496.272 2.639-1.386.126-11.087-3.16-14.338C72.878-.236 61.13.92 62.727 8.588c.554 2.661 2.406 4.698 4.697 6.166l.772 14.322 9.082-2.264-4.45-9.73Z" clip-rule="evenodd"/>
  <path fill="#191847" fill-rule="evenodd" d="M70.565 7.524s.988-2.3 1.83-3.026c4.01-.937 4.286-1.72 3.64-3.961-.768-.268-3.25-.423-5.858.01-1.4-.022-2.92.427-4.238 1.374-1.692.94-2.943 2.366-3.067 4.484-1.334 4.593 1.737 8.26 4.679 9.041a31.92 31.92 0 0 0 1.17-2.598 2.208 2.208 0 0 1-1.12-1.339c-.335-1.165.41-2.363 1.663-2.676.093-.023 1.209-1.296 1.301-1.309.028.098-.037-.113 0 0Z" clip-rule="evenodd"/>
  <path fill="#997659" fill-rule="evenodd" d="m72.54 58.256 19.227 45.23 12.897 38.238h5.092L90.04 58.256h-17.5Z" clip-rule="evenodd"/>
  <path fill="#D0A180" fill-rule="evenodd" d="M68.668 58.256C68.463 74.15 65.477 95.55 65 96.54c-.477.99-32.938 25.199-32.938 25.199l3.507 3.488s38.301-20.755 40.073-23.523c1.773-2.769 7.544-28.242 12.176-43.448h-19.15Z" clip-rule="evenodd"/>
  <path fill="#738AAE" fill-rule="evenodd" d="M32.608 121.028a.744.744 0 0 0-.944-.47c-.787.265-1.984.709-2.506 1.117-.812.633-2.142 2.099-2.142 2.099l14.203 15.731s2.734-1.088 1.715-2.544a119.742 119.742 0 0 1-1.667-2.441l-3.103-10.073c-.056-.183-.263-.286-.457-.229l-1.68.496s-1.719-.745-2.409-1.509c-.432-.479-.797-1.488-1.01-2.177Zm70.996 18.5c-.387-.16-.847 0-.993.37-.287.73-.69 1.868-.69 2.502 0 .985.353 2.874.353 2.874h22.096s.861-2.646-.995-2.857c-1.855-.211-3.083-.381-3.083-.381l-10.298-4.267a.373.373 0 0 0-.482.179l-.671 1.515s-1.718.745-2.792.745c-.673 0-1.741-.389-2.445-.68Z" clip-rule="evenodd"/>
  <path fill="#041259" fill-rule="evenodd" d="m84.726 137.202 24.212-2.442-17.944-77.088H69.308l15.418 79.53Z" clip-rule="evenodd"/>
  <path fill="#2337A2" fill-rule="evenodd" d="m37.07 116.111 15.881 17.471s25.092-25.47 29.258-33.238c4.165-7.768 7.489-42.088 7.489-42.088H65.282s-1.816 30.193-2.448 31.598c-.632 1.405-25.766 26.257-25.766 26.257Z" clip-rule="evenodd"/>
  <path fill="#D0A180" fill-rule="evenodd" d="m116.447 56.375-13.897-6.379-1.537 6.697 13.077 2.696c4.159 3.197 6.384 4.45 6.673 3.757.244-.584-.118-1.034-.452-1.448-.26-.323-.503-.624-.428-.95.171-.745 2.5-1.052 4.724-1.255 2.223-.203 1.412-1.006.798-1.367-2.475-.878-5.461-1.462-8.958-1.751ZM54.713 81.767c.726-2.317.64-23.725.64-23.725l8.069-1.294s-3.224 23.628-3.56 25.097c-.435 1.907 1.369 4.279 2.591 5.887.19.249.365.48.515.687-1.138.717-1.849.193-2.599-.359-.846-.624-1.743-1.283-3.359-.233-.624.406-1.202.859-1.767 1.302-1.95 1.53-3.74 2.935-6.75 1.824-.477-.176-1.124-1.028-.123-1.94 2.496-2.276 5.987-6.113 6.343-7.246Z" clip-rule="evenodd"/>
  <path fill="#334C72" fill-rule="evenodd" d="m72.31 22.84 3.235-1.08c14.26 7.906 22.961 26.163 40.049 33.786l-2.855 4.807c-26.895 1.29-37.83-20.925-40.43-37.514Z" clip-rule="evenodd"/>
  <path fill="#CDDAE7" fill-rule="evenodd" d="m65.147 64.19 29.52-4.845c1.348-.222.75-1.99.383-2.871-4.248-10.173-15.184-20.094-18.027-35.1l-8.75.156c-5.048 11.683-5.028 25.043-3.126 42.66Z" clip-rule="evenodd"/>
  <path fill="#738BAE" fill-rule="evenodd" d="M63.255 72.265c-.766 3.179-1.577 5.976-2.427 8.162l-6.33 1.04c-4.559-20.356.796-37.473 5.975-48.115-1.57.152-3.081-.221-4.246-1.559-4.101-4.708-3.521-7.766-.374-9.256 1.73-.82 3.517-.747 5.657-.661 1.75.07 3.736.151 6.12-.24h.003a4.52 4.52 0 0 1 .64-.062l2.854-.314s18.315 34.25 15.46 47.175l-23.332 3.83Z" clip-rule="evenodd"/>
  <path fill="#000" fill-opacity=".1" fill-rule="evenodd" d="M63.255 72.265c1.005-4.172 1.93-9 2.761-13.965 1.617 5.053 3.662 10.058 5.96 12.533l-8.721 1.432Z" clip-rule="evenodd"/>
  <path fill="#C89424" d="M115.609 120.689c1.103.499 2.258.901 3.478 1.146l-8.469 23.441h9.893l8.972-24.832c4.455-2.183 7.788-6.274 8.803-11.245l4.982-19.404h13.966v-13.87h-4.888c-1.08-5.276-5.773-9.248-11.406-9.248-3.752 0-7.053 1.794-9.181 4.531l-11.932 18.836c-.605.093-37.561 9.354-37.561 9.354s-1.732.573-2.533.989l-8.487-8.42-4.94 4.906 8.483 8.424c-.838 1.591-1.355 3.38-1.355 5.303v17.579l-9.297 17.097H74.72l17.561-32.29 23.329 7.703Z"/>
  <path fill="#000" d="M143.268 89.795h13.966v-13.87h-4.888l-9.078 13.87Z" opacity=".3"/>
  <path fill="#fff" d="M129.482 120.444c4.456-2.183 7.789-6.274 8.804-11.245l4.982-19.404s-11.509 0-11.509-18.586l-.084-.051-11.848 18.886c-.61.093 9.655 30.4 9.655 30.4Zm-2.29 6.338-6.681 18.494h-9.893l6.681-18.494h9.893Zm-47.445 9.247-5.028 9.247H64.137l5.028-9.247h10.582Z" opacity=".4"/>
  <rect width="26.835" height="4.531" x="122.385" y="84.195" fill="#0B9472" rx="2.266" transform="rotate(32.818 122.385 84.195)"/>
  <rect width="28.89" height="2.258" x="121.253" y="60" fill="#0B9472" rx="1.129" transform="rotate(85.59 121.253 60)"/>
  <path fill="#F2C194" fill-rule="evenodd" d="M53.854 35.133c2.202 1.224 4.366 1.816 5.382 1.574 2.547-.605 2.781-9.198.81-12.585-1.97-3.388-12.102-4.864-12.613 1.847-.177 2.33.884 4.409 2.451 6.105l-2.81 12.078h8.163l-1.383-9.019Z" clip-rule="evenodd"/>
  <path fill="#191847" fill-rule="evenodd" d="M55.394 20.217c-1.076-.163-3.972-.274-4.506-.274-.342 0-.712.072-.914-.218-.165-.236-.105-.637-.154-.911a12.37 12.37 0 0 0-.221-.948 9.22 9.22 0 0 0-1.086-2.543 8.274 8.274 0 0 0-4.018-3.355c-1.902-.754-4.054-.927-6.1-.774-2.19.164-4.171.83-6.238 1.457-1.97.598-4.033.834-6.093.542-2.076-.294-3.645-1.332-5.395-2.317-1.793-1.008-3.841-1.667-5.96-1.515-1.978.141-3.801.894-5.437 1.9-1.53.942-2.792 2.074-3.505 3.668C5 16.644 5 18.526 6.262 20.041c1.828 2.196 5.22 2.764 8.044 2.708a16.53 16.53 0 0 0 4.779-.808c2.056-.667 3.832-1.797 5.756-2.714a15.73 15.73 0 0 1 2.814-1.038c.949-.248 1.884-.361 2.743.168.909.559 1.723 1.108 2.763 1.459a9.586 9.586 0 0 0 3.118.516c2.068-.015 4.106-.61 6.115-1.007 1.638-.325 3.39-.648 5.06-.336.697.13 1.715.399 1.966 1.067-4.235.707-5.899 5.538-4.705 9.084.645 1.915 4.519 4.152 6.025 3.146.954-.638.375-1.475 0-2.027-.718-1.058-.964-2.417.365-3.154 1.146-.635 2.35.874 2.374.872.315-.023 3.037-1.442 4.912-3.514 1.85.101 2.13-1.023 1.689-1.943-.442-.92-3.2-2.078-4.686-2.303Z" clip-rule="evenodd"/>
  <path fill="#997659" fill-rule="evenodd" d="m45.033 70.183 25.272 38.961 18.946 32.938h4.08L61.588 70.183H45.033Z" clip-rule="evenodd"/>
  <path fill="#86617E" fill-rule="evenodd" d="M87.648 140.19c-.336-.137-.736 0-.863.319-.249.628-.6 1.609-.6 2.155 0 .849.307 2.476.307 2.476h19.182s.748-2.279-.863-2.461a125.766 125.766 0 0 1-2.676-.328l-8.94-3.676c-.162-.066-.351.004-.419.155l-.583 1.304s-1.491.642-2.424.642c-.584 0-1.51-.335-2.121-.586Z" clip-rule="evenodd"/>
  <path fill="#928864" fill-rule="evenodd" d="m83.989 136.808 7.87-2.195s-5.172-14.259-12.678-31.382c-7.506-17.123-16.123-33.048-16.123-33.048H40.831s9.58 20.145 20.311 36.608c10.732 16.464 22.847 30.017 22.847 30.017Z" clip-rule="evenodd"/>
  <path fill="#F2C194" fill-rule="evenodd" d="M43.373 70.183c-2.386 13.691-6.986 31.183-7.42 31.723-.29.36-10.71 3.58-31.259 9.659l.882 3.319c24.505-3.261 37.417-5.791 38.737-7.589 1.978-2.698 11.858-24.014 15.685-37.112H43.373Z" clip-rule="evenodd"/>
  <path fill="#BDB394" fill-rule="evenodd" d="m11.918 108.697 1.553 5.344c18.328 1.483 29.559.412 33.69-3.213 4.133-3.625 8.842-17.173 14.129-40.645H40.095c-3.35 19.22-5.223 29.234-5.618 30.041-.396.807-7.915 3.631-22.559 8.473Z" clip-rule="evenodd"/>
  <path fill="#86617E" fill-rule="evenodd" d="M6.252 110.927a.587.587 0 0 0-.49-.727c-.714-.117-1.822-.265-2.406-.17-.905.147-2.59.708-2.59.708l3.33 17.421s2.565.283 2.48-1.212a91.937 91.937 0 0 1-.115-2.488l2.372-8.757c.043-.158-.064-.318-.237-.353l-1.495-.303s-.944-1.243-1.106-2.09c-.101-.53.096-1.43.257-2.029Z" clip-rule="evenodd"/>
  <path fill="#F2C194" fill-rule="evenodd" d="m83.931 73.87-9.634-8.666-3.2 5.106 10.019 5.447c2.512 3.649 3.987 5.225 4.426 4.73.37-.418.2-.876.044-1.298-.122-.329-.235-.636-.08-.884.357-.569 2.368-.243 4.263.14 1.894.385 1.456-.473 1.053-.922-1.79-1.332-4.087-2.55-6.89-3.652ZM27.144 86.464c.997-1.864 4.39-20.037 4.39-20.037l7.108.026s-6.583 19.596-7.108 20.794c-.68 1.558.477 3.82 1.262 5.356.121.237.234.457.329.654-1.089.45-1.613-.094-2.164-.667-.623-.646-1.282-1.331-2.834-.665-.6.257-1.167.561-1.721.858-1.915 1.027-3.674 1.97-6.067.608-.38-.216-.795-1.028.21-1.664 2.502-1.582 6.108-4.351 6.595-5.263Z" clip-rule="evenodd"/>
  <path fill="#41283B" fill-rule="evenodd" d="m51.732 38.925 2.94-.465c5.064 11.663 13.904 22.261 26.52 31.794L71.66 80.935c-12.615-13.573-20.392-27.576-19.927-42.01Z" clip-rule="evenodd"/>
  <path fill="#E9D9E5" fill-rule="evenodd" d="M38.912 73.006H65.1S56 52.601 56 38.338l-7.9-1.086c-6.208 9.208-7.961 20.544-9.187 35.754Z" clip-rule="evenodd"/>
  <path fill="#86617E" fill-rule="evenodd" d="M27.009 83.356c2.863-29.796 20.917-46.104 20.917-46.104l.006.006.003-.006h.516c.925.03 2.82.106 2.82.106l1.908 5.03c.303 9.2 3.537 37.08 3.537 37.08h-17.14a68.11 68.11 0 0 0 .197 3.888H27.009Z" clip-rule="evenodd"/>
  <path fill="#000" fill-opacity=".1" fill-rule="evenodd" d="M39.578 79.592c-.137-5.567.399-10.794 1.292-15.524.467 5.613 1.444 12.367 3.483 15.524h-4.775Z" clip-rule="evenodd"/>
  <path fill="#fff" fill-opacity=".2" fill-rule="evenodd" d="m43.371 69.87 8.465-3.63v3.63H43.37Z" clip-rule="evenodd"/>
  <path fill="#492D19" d="M94.564 118.108a9.62 9.62 0 0 0-1.663 5.419v21.75h4.833v-7.18l4.834-4.904h16.916v12.084h4.834v-6.994l6.317-8.848c.575-1.041.933-2.218.933-3.492h3.625a6.04 6.04 0 0 0 1.196-11.962c0-.041.012-.08.012-.121 0-4.005-4.833-7.25-9.667-7.25-2.909 0-5.802 1.189-7.656 2.999l-4.427 4.251h-12.083c-.88 0-1.714.155-2.523.374a3.62 3.62 0 0 0-3.52-2.791 3.626 3.626 0 0 0-3.624 3.625c0 1.276.665 2.395 1.663 3.04Z"/>
  <path fill="#000" d="M121.9 107.741v2.494a3.626 3.626 0 0 0 3.625 3.625 3.626 3.626 0 0 0 3.625-3.625v-3.347a11.073 11.073 0 0 0-2.416-.278c-1.694 0-3.355.437-4.834 1.131Z" opacity=".3"/>
  <path fill="#fff" d="M102.609 133.193h16.875v12.083h4.834v-6.993l6.317-8.848c.575-1.041.933-2.218.933-3.492h3.095c1.663 0 2.19-.261 2.19-.261 2.525-.725 4.381-3.023 4.381-5.781 0-2.738-1.834-5.021-4.33-5.761-.172-.053-.336-.123-.515-.159 0-.042.012-.08.012-.121 0-3.328-3.347-6.102-7.25-6.955v3.33a3.626 3.626 0 0 1-3.625 3.625 3.626 3.626 0 0 1-3.625-3.625v13.291a4.832 4.832 0 0 1-4.833 4.834h-9.655l-4.804 4.833Z" opacity=".4"/>
  <rect width="24.384" height="3.409" x="114.443" y="111.808" fill="#BC5757" rx="1.705" transform="rotate(37.906 114.443 111.808)"/>
  <rect width="46.886" height="2.258" x="86.52" y="77.276" fill="#BC5757" rx="1.129" transform="rotate(51.006 86.52 77.276)"/>
</svg>
