<svg xmlns="http://www.w3.org/2000/svg" width="67" height="65" fill="none" viewBox="0 0 67 65">
  <path fill="#999" d="M42.36 9.076c-2.542.617-4.543 2.778-5.511 5.944-.456 1.49-.656 3.338-.506 4.684.292 2.66 1.538 4.746 3.386 5.683.627.315 1.253.48 1.852.48.477 0 .897-.086 1.377-.28 2.899-1.173 4.904-4.17 5.338-7.983.075-.67.057-1.977-.04-2.763-.142-1.17-.31-1.795-.697-2.603-.609-1.267-1.464-2.204-2.51-2.742a4.013 4.013 0 0 0-1.87-.492c-.402-.01-.509-.004-.819.072Zm-18.011-.027c-1.456.258-2.784 1.34-3.59 2.93-.757 1.487-.964 3.578-.571 5.774.5 2.8 1.959 5.161 4.036 6.523.457.3 1.213.667 1.727.834.364.119.457.133.86.15.536.021.918-.027 1.385-.174a4.512 4.512 0 0 0 1.874-1.128c1.102-1.079 1.788-2.702 1.948-4.62.064-.788-.007-1.962-.182-2.88-.624-3.324-2.462-5.936-4.925-6.994-.96-.412-1.806-.548-2.562-.415ZM55.978 20.91c-2.376.402-4.472 2.09-5.766 4.652-.614 1.215-.938 2.264-1.172 3.789-.082.55-.097.757-.097 1.384 0 .768.044 1.149.198 1.77.413 1.664 1.388 3.02 2.599 3.621.661.33 1.265.451 1.945.388 1.65-.148 3.12-.912 4.428-2.3 1.442-1.533 2.434-3.652 2.758-5.879.082-.557.14-1.647.115-2.094-.133-2.3-1.334-4.316-3.006-5.055-.647-.284-1.358-.384-2.002-.276ZM9.747 22.268c-1.51.49-2.65 1.766-2.918 3.27-.096.532-.13 1.276-.093 1.945.134 2.424 1.369 4.984 3.249 6.748.413.387 1.203.976 1.691 1.253 1.13.652 2.435 1.045 3.606 1.093.31.012 1.025-.101 1.303-.208 1.236-.468 2.182-1.519 2.603-2.896.26-.847.302-1.884.126-3.071a8.407 8.407 0 0 0-.432-1.783c-.875-2.536-2.82-4.743-5.169-5.862-.642-.31-1.533-.607-2.004-.671a4.882 4.882 0 0 0-1.962.182Zm23.837 8.691a14.255 14.255 0 0 0-4.18 1.144c-2.1.933-4.128 2.485-5.438 4.17-2.826 3.642-4.788 7.585-5.587 11.222-.049.224-.134.562-.187.754a5.241 5.241 0 0 0 .126 3.095c.568 1.58 1.796 2.806 3.317 3.32.908.305 2.266.301 3.779-.017.985-.203 1.723-.44 3.815-1.217 2.912-1.088 3.718-1.296 5.677-1.479.876-.081 1.034-.085 1.638-.04 1.545.11 2.765.447 5.109 1.409 2.076.85 3.236 1.311 3.528 1.393 2.919.83 5.818-.192 6.811-2.404.434-.973.483-2.557.118-4.06-.357-1.463-1.415-3.837-2.429-5.438-2.854-4.513-4.91-7.042-7.258-8.948-2.226-1.8-4.075-2.648-6.37-2.904a13.891 13.891 0 0 0-2.469 0Z"/>
</svg>
