<svg xmlns="http://www.w3.org/2000/svg" width="80" height="80" fill="none" viewBox="0 0 80 80">
  <path fill="#D9D9D9" d="M0 0h80v80H0z"/>
  <path fill="#A5B3FA" d="M0 0h80v80H0z"/>
  <circle cx="40" cy="40" r="40" fill="#A5B3FA"/>
  <g clip-path="url(#a)">
    <path fill="#A5B3FA" d="M19 19h42v42H19z"/>
    <path fill="#fff" d="M33 31.25h19.25v24.5H33v-24.5Z"/>
    <path fill="#fff" d="M47 20.75H26a3.51 3.51 0 0 0-3.5 3.5v24.5H26v-24.5h21v-3.5Zm5.25 7H33a3.51 3.51 0 0 0-3.5 3.5v24.5a3.51 3.51 0 0 0 3.5 3.5h19.25a3.51 3.51 0 0 0 3.5-3.5v-24.5a3.51 3.51 0 0 0-3.5-3.5Zm0 28H33v-24.5h19.25v24.5Z"/>
  </g>
  <defs>
    <clipPath id="a">
      <path fill="#fff" d="M0 0h42v42H0z" transform="translate(19 19)"/>
    </clipPath>
  </defs>
</svg>
