<svg xmlns="http://www.w3.org/2000/svg" width="80" height="80" fill="none" viewBox="0 0 80 80">
  <path fill="#1D9BF0" d="M0 0h80v80H0z"/>
  <rect width="80" height="80" fill="#1D9BF0" rx="40"/>
  <path fill="#fff" d="M32.68 61.1c17.74 0 27.44-14.7 27.44-27.44 0-.42 0-.84-.02-1.24 1.88-1.36 3.52-3.06 4.82-5-1.72.76-3.58 1.28-5.54 1.52 2-1.2 3.52-3.08 4.24-5.34a19.53 19.53 0 0 1-6.12 2.34 9.597 9.597 0 0 0-7.04-3.04c-5.32 0-9.64 4.32-9.64 9.64 0 .76.08 1.5.26 2.2-8.02-.4-15.12-4.24-19.88-10.08a9.674 9.674 0 0 0-1.3 4.84 9.6 9.6 0 0 0 4.3 8.02 9.474 9.474 0 0 1-4.36-1.2v.12c0 4.68 3.32 8.56 7.74 9.46-.8.22-1.66.34-2.54.34-.62 0-1.22-.06-1.82-.18a9.63 9.63 0 0 0 9 6.7c-3.3 2.58-7.46 4.12-11.98 4.12-.78 0-1.54-.04-2.3-.14 4.22 2.76 9.3 4.36 14.74 4.36Z"/>
</svg>
