<svg xmlns="http://www.w3.org/2000/svg" width="100%" height="100%" fill="none" viewBox="0 0 60 69">
  <path fill="#C4A5FA" d="M14.1 1.963C7.065 4.236 1.75 10.158.503 17.137c-.448 2.468-.606 5.92-.434 9.025.625 11.248 6.38 23.127 15.142 31.313 1.925 1.795 5.607 4.529 7.88 5.814 5.267 3.025 11.35 4.85 16.807 5.072 1.444.055 4.776-.469 6.072-.965 5.76-2.172 10.17-7.049 12.131-13.439 1.212-3.93 1.408-8.742.587-14.25a38.868 38.868 0 0 0-2.013-8.274C52.596 19.666 43.532 9.424 32.584 4.232c-2.992-1.439-7.144-2.817-9.34-3.114a22.846 22.846 0 0 0-9.143.845Z"/>
</svg>
