<svg xmlns="http://www.w3.org/2000/svg" width="50" height="50" fill="none" viewBox="0 0 50 50">
  <g clip-path="url(#a)">
    <path fill="#F0F0F0" d="M25 50c13.807 0 25-11.193 25-25S38.807 0 25 0 0 11.193 0 25s11.193 25 25 25Z"/>
    <path fill="#EF1111" d="M33.696 25c0 2.174-3.893 7.609-8.696 7.609-4.802 0-8.695-5.435-8.695-7.609a8.696 8.696 0 1 1 17.39 0Z"/>
    <path fill="#0055BA" d="M33.696 25a8.696 8.696 0 1 1-17.391 0"/>
    <path fill="#333" d="m34.216 32.686 2.305-2.305 1.537 1.537-2.305 2.305-1.537-1.537Zm-3.843 3.843 2.305-2.306 1.537 1.537-2.305 2.306-1.537-1.537Zm8.454.768 2.306-2.305 1.536 1.536-2.305 2.306-1.537-1.537Zm-3.843 3.843 2.306-2.305 1.537 1.537-2.306 2.305-1.537-1.537Zm1.538-6.148 2.305-2.305 1.537 1.537-2.306 2.305-1.536-1.537Zm-3.842 3.842 2.305-2.305 1.537 1.537-2.305 2.305-1.537-1.537Zm6.158-21.516L32.69 11.17l1.537-1.537 6.148 6.148-1.537 1.537Zm-6.15-1.537-2.305-2.305 1.537-1.537 2.305 2.306-1.537 1.537Zm3.843 3.844-2.305-2.305 1.537-1.537 2.305 2.305-1.537 1.537Zm.768-8.455-2.306-2.305 1.537-1.537 2.306 2.305-1.537 1.537Zm3.845 3.844-2.306-2.306 1.537-1.537 2.306 2.306-1.537 1.537ZM8.862 34.987l6.148 6.148-1.537 1.537-6.148-6.147 1.537-1.538Zm6.148 1.536 2.305 2.306-1.537 1.536-2.305-2.305 1.537-1.537Zm-3.842-3.841 2.305 2.305-1.537 1.537-2.305-2.305 1.537-1.537Zm2.306-2.307 6.147 6.148-1.537 1.537-6.147-6.148 1.537-1.537ZM15.01 8.86l-6.148 6.147-1.537-1.537 6.148-6.147L15.01 8.86Zm2.305 2.305-6.147 6.148-1.537-1.537 6.147-6.148 1.537 1.537Zm2.308 2.307-6.148 6.147-1.537-1.536 6.148-6.148 1.537 1.537Z"/>
  </g>
  <defs>
    <clipPath id="a">
      <path fill="#fff" d="M0 0h50v50H0z"/>
    </clipPath>
  </defs>
</svg>
