<svg xmlns="http://www.w3.org/2000/svg" width="80" height="80" fill="none" viewBox="0 0 80 80">
  <path fill="#FEE500" d="M0 0h80v80H0z"/>
  <circle cx="40" cy="40" r="40" fill="#FEE500"/>
  <path fill="#392020" d="M40.116 19.305c-12.445 0-22.481 8.029-22.481 17.776 0 6.327 4.175 11.867 10.437 15.03l-2.12 7.917a.674.674 0 0 0 .161.69.707.707 0 0 0 .466.177.675.675 0 0 0 .385-.16l9.121-6.15a30.86 30.86 0 0 0 4.063.288c12.429 0 22.48-8.029 22.48-17.792 0-9.763-10.084-17.776-22.512-17.776Z"/>
  <path fill="#FEE500" d="M25.502 34.271h-2.457a1.606 1.606 0 0 1-.867-.225.997.997 0 0 1-.45-.658 1.412 1.412 0 0 1 0-.257.997.997 0 0 1 .386-.835c.28-.203.618-.31.963-.305h7.403c.307-.011.61.073.867.24a.932.932 0 0 1 .45.659c.008.08.008.16 0 .24a1.028 1.028 0 0 1-.386.852 1.478 1.478 0 0 1-.947.289h-2.377v8.446a1.3 1.3 0 0 1-.369.98 1.239 1.239 0 0 1-.931.37 1.3 1.3 0 0 1-.835-.274 1.204 1.204 0 0 1-.434-.722 1.314 1.314 0 0 1 0-.354l-.016-8.446Zm7.004-1.654c.07-.264.236-.493.466-.642.244-.139.522-.206.803-.193h.61c.297-.01.592.062.85.209.275.184.47.465.547.787l3.211 9.072c.084.237.153.478.209.723.006.102.006.203 0 .305a1.077 1.077 0 0 1-.353.835 1.17 1.17 0 0 1-.867.353 1.108 1.108 0 0 1-1.157-.738l-.674-1.975h-4.223l-.675 1.975a1.092 1.092 0 0 1-1.172.738 1.204 1.204 0 0 1-.755-.24 1.108 1.108 0 0 1-.401-.675 1.466 1.466 0 0 1 0-.273 1.41 1.41 0 0 1 0-.482c0-.176.112-.37.177-.546l3.404-9.233Zm1.606 2.104-1.526 4.817h3.035l-1.51-4.817Zm5.458-1.59c-.017-.36.11-.712.353-.98a1.252 1.252 0 0 1 .947-.369 1.37 1.37 0 0 1 .835.273c.224.188.372.45.418.739.016.112.016.225 0 .337v8.447h4.416c.306-.005.607.079.867.24a.98.98 0 0 1 .45.659v.24a.996.996 0 0 1-.386.836c-.28.202-.618.31-.963.305h-5.428a1.605 1.605 0 0 1-.98-.257 1.236 1.236 0 0 1-.481-.803 4.007 4.007 0 0 1 0-.53l-.048-9.137Zm8.575 0c-.01-.36.117-.709.354-.98a1.413 1.413 0 0 1 1.782-.096c.228.187.382.449.434.739.007.112.007.225 0 .337v3.934l4.062-4.689c.157-.16.323-.31.498-.45.165-.097.354-.148.546-.144.28-.001.555.083.787.241a.98.98 0 0 1 .417.642.241.241 0 0 1 0 .097.272.272 0 0 0 0 .112.98.98 0 0 1-.128.482c-.085.155-.188.3-.305.433l-2.666 2.923 3.212 4.978v.16c.166.23.297.485.385.755v.08a1.156 1.156 0 0 1-.401.996 1.51 1.51 0 0 1-.932.305c-.223.01-.444-.04-.642-.144a1.606 1.606 0 0 1-.514-.562l-2.987-4.818-1.429 1.494v2.681c.01.36-.116.71-.353.98a1.301 1.301 0 0 1-.964.37 1.285 1.285 0 0 1-.818-.274 1.204 1.204 0 0 1-.434-.722 1.315 1.315 0 0 1 0-.354l.096-9.506Z"/>
</svg>
