<svg xmlns="http://www.w3.org/2000/svg" width="152" height="80" fill="none" viewBox="0 0 152 80">
  <g clip-path="url(#a)">
    <path fill="#333" d="M125.905 47.967c0-1.082-.889-1.959-1.984-1.959-1.096 0-1.984.877-1.984 1.959v29.278c0 1.081.888 1.958 1.984 1.958 1.095 0 1.984-.877 1.984-1.958V47.967Z"/>
    <path fill="#333" d="M149.512 46.008c1.114 0 2.017.892 2.017 1.992s-.903 1.992-2.017 1.992h-25.558c-1.114 0-2.017-.892-2.017-1.992s.903-1.992 2.017-1.992h25.558Zm-.052 29.212c1.114 0 2.018.892 2.018 1.992s-.904 1.991-2.018 1.991h-25.558c-1.114 0-2.017-.891-2.017-1.991s.903-1.992 2.017-1.992h25.558Z"/>
    <path fill="#333" d="M144.066 57.266a1.964 1.964 0 0 0-.204-2.795 2.026 2.026 0 0 0-2.832.202l-18.605 21.224a1.964 1.964 0 0 0 .204 2.795 2.026 2.026 0 0 0 2.832-.202l18.605-21.224ZM85.55 47.967c0-1.082-.888-1.959-1.984-1.959s-1.984.877-1.984 1.959v29.278c0 1.081.888 1.958 1.984 1.958s1.984-.877 1.984-1.958V47.967Z"/>
    <path fill="#333" d="M109.157 46.008c1.115 0 2.018.892 2.018 1.992s-.903 1.992-2.018 1.992H83.6c-1.115 0-2.018-.892-2.018-1.992s.903-1.992 2.018-1.992h25.557Zm-.051 29.212c1.114 0 2.017.892 2.017 1.992s-.903 1.991-2.017 1.991H83.548c-1.115 0-2.018-.891-2.018-1.991s.903-1.992 2.018-1.992h25.558Z"/>
    <path fill="#333" d="M103.712 57.266a1.964 1.964 0 0 0-.205-2.795 2.025 2.025 0 0 0-2.831.202L82.07 75.897a1.964 1.964 0 0 0 .205 2.795 2.026 2.026 0 0 0 2.831-.202l18.606-21.224Zm-58.515-9.299c0-1.082-.889-1.959-1.984-1.959-1.096 0-1.985.877-1.985 1.959v29.278c0 1.081.889 1.958 1.985 1.958 1.095 0 1.984-.877 1.984-1.958V47.967Z"/>
    <path fill="#333" d="M68.804 46.008c1.114 0 2.017.892 2.017 1.992s-.903 1.992-2.017 1.992H43.246c-1.114 0-2.018-.892-2.018-1.992s.904-1.992 2.018-1.992h25.558Z"/>
    <path fill="#333" d="M44.775 46.7a2.036 2.036 0 0 0-2.846-.204 1.974 1.974 0 0 0-.205 2.81l25.54 29.135a2.037 2.037 0 0 0 2.846.203c.842-.72.934-1.978.205-2.81L44.775 46.7Z"/>
    <path fill="#ED02D0" d="M70.305 49.34a1.972 1.972 0 0 0-.205-2.809 2.036 2.036 0 0 0-2.846.203L54.686 61.071c-.73.832-.637 2.09.205 2.81.843.72 2.117.629 2.846-.203L70.305 49.34Z"/>
    <path fill="#333" d="M13.653 48.003c0-1.1.904-1.992 2.018-1.992 1.114 0 2.018.892 2.018 1.992v29.212c0 1.1-.904 1.992-2.018 1.992-1.114 0-2.018-.892-2.018-1.992V48.003Z"/>
    <path fill="#333" d="M28.45 46.008c1.114 0 2.017.892 2.017 1.992s-.903 1.992-2.018 1.992H2.892C1.777 49.992.874 49.1.874 48s.903-1.992 2.018-1.992h25.557Z"/>
    <path fill="#333" fill-rule="evenodd" d="M116.556 45.344c2.972 0 5.381-2.378 5.381-5.31 0-2.934-2.409-5.312-5.381-5.312-2.971 0-5.38 2.378-5.38 5.311s2.409 5.311 5.38 5.311Zm0-3.983c.744 0 1.345-.594 1.345-1.328 0-.733-.601-1.328-1.345-1.328-.743 0-1.345.595-1.345 1.328 0 .733.602 1.328 1.345 1.328Zm-40.354 3.983c2.971 0 5.38-2.378 5.38-5.31 0-2.934-2.409-5.312-5.38-5.312-2.972 0-5.38 2.378-5.38 5.311s2.408 5.311 5.38 5.311Zm0-3.983c.743 0 1.345-.594 1.345-1.328 0-.733-.602-1.328-1.345-1.328s-1.345.595-1.345 1.328c0 .733.602 1.328 1.345 1.328Zm-40.354 3.983c2.972 0 5.38-2.378 5.38-5.31 0-2.934-2.408-5.312-5.38-5.312-2.971 0-5.38 2.378-5.38 5.311s2.409 5.311 5.38 5.311Zm0-3.983c.743 0 1.345-.594 1.345-1.328 0-.733-.602-1.328-1.345-1.328s-1.345.595-1.345 1.328c0 .733.602 1.328 1.345 1.328Z" clip-rule="evenodd"/>
    <path fill="#333" d="M125.905 2.822c0-1.082-.889-1.959-1.984-1.959-1.096 0-1.984.877-1.984 1.959V32.1c0 1.081.888 1.958 1.984 1.958 1.095 0 1.984-.877 1.984-1.958V2.822Z"/>
    <path fill="#333" d="M149.512.863c1.114 0 2.017.892 2.017 1.992s-.903 1.991-2.017 1.991h-25.558c-1.114 0-2.017-.891-2.017-1.991s.903-1.992 2.017-1.992h25.558Zm-.052 29.212c1.114 0 2.018.891 2.018 1.991s-.904 1.992-2.018 1.992h-25.558c-1.114 0-2.017-.892-2.017-1.992s.903-1.991 2.017-1.991h25.558Z"/>
    <path fill="#333" d="M144.066 12.12a1.964 1.964 0 0 0-.204-2.794 2.026 2.026 0 0 0-2.832.201l-18.605 21.225a1.964 1.964 0 0 0 .204 2.795 2.026 2.026 0 0 0 2.832-.202l18.605-21.224ZM85.55 2.822c0-1.082-.888-1.959-1.984-1.959s-1.984.877-1.984 1.959V32.1c0 1.081.888 1.958 1.984 1.958s1.984-.877 1.984-1.958V2.822Z"/>
    <path fill="#333" d="M110.483 1.41a1.997 1.997 0 0 0-2.792.2L82.065 30.843a1.936 1.936 0 0 0 .201 2.756 1.997 1.997 0 0 0 2.792-.199l25.627-29.233a1.936 1.936 0 0 0-.202-2.756Z"/>
    <path fill="#333" d="M97.872 16.16a2.036 2.036 0 0 0-2.846-.202 1.974 1.974 0 0 0-.206 2.809l12.804 14.604c.73.832 2.004.922 2.846.203.843-.72.935-1.978.206-2.81L97.872 16.16ZM45.197 2.822c0-1.082-.889-1.959-1.984-1.959-1.096 0-1.985.877-1.985 1.959V32.1c0 1.081.889 1.958 1.985 1.958 1.095 0 1.984-.877 1.984-1.958V2.822Z"/>
    <path fill="#333" d="M65.306 26.091c1.115 0 2.018.892 2.018 1.992s-.903 1.992-2.018 1.992H43.18c-1.114 0-2.018-.892-2.018-1.992s.904-1.992 2.018-1.992h22.127Z"/>
    <path fill="#333" d="M44.775 1.554a2.036 2.036 0 0 0-2.846-.203 1.974 1.974 0 0 0-.205 2.81l25.54 29.134a2.036 2.036 0 0 0 2.846.203c.842-.72.934-1.977.205-2.809L44.775 1.554ZM4.842 2.822c0-1.082-.888-1.959-1.984-1.959S.874 1.74.874 2.822V32.1c0 1.081.888 1.958 1.984 1.958s1.984-.877 1.984-1.958V2.822Zm21.59.033c0-1.1.903-1.992 2.017-1.992 1.115 0 2.018.892 2.018 1.992v29.211c0 1.1-.903 1.992-2.018 1.992-1.114 0-2.017-.892-2.017-1.992V2.855Z"/>
    <path fill="#333" d="M4.422 1.554a2.036 2.036 0 0 0-2.846-.203 1.974 1.974 0 0 0-.206 2.81l25.54 29.134c.73.832 2.003.923 2.846.203s.935-1.977.206-2.809L4.422 1.554Z"/>
    <path fill="#333" d="M29.951 4.195c.73-.831.637-2.09-.206-2.809a2.036 2.036 0 0 0-2.846.203L14.332 15.926a1.975 1.975 0 0 0 .206 2.81c.842.72 2.117.628 2.846-.203L29.95 4.195Z"/>
    <path fill="#2D0ED0" d="M29.951 4.195c.73-.831.637-2.09-.206-2.809a2.036 2.036 0 0 0-2.846.203L14.332 15.926a1.975 1.975 0 0 0 .206 2.81c.842.72 2.117.628 2.846-.203L29.95 4.195Z"/>
  </g>
  <defs>
    <clipPath id="a">
      <path fill="#fff" d="M0 0h151.529v80H0z"/>
    </clipPath>
  </defs>
</svg>
