<svg xmlns="http://www.w3.org/2000/svg" width="100%" height="100%" fill="none" viewBox="0 0 60 60">
  <path fill="#FFE589" d="M21.282 6.511c-.74-1.134-2.271.097-1.58 1.272.18.307.38.603.567.889 2.28 3.446 4.481 10.407 5.5 14.57.249 1.034.49 2.11.206 3.102.407-2.702.144-5.493-.472-8.147-.615-2.653-2.593-7.905-3.581-10.41a7.271 7.271 0 0 0-.64-1.276ZM1.32 15.006c-1.53-.052-1.733 2.574-.202 2.712.4.038.808.048 1.194.059 4.71.145 15.348 3.598 19.631 5.665 1.05.507 2.143 1.075 2.755 2.161-1.931-2.52-4.668-3.994-7.371-5.352-2.703-1.358-11.568-4.146-14.446-4.976a6.638 6.638 0 0 0-1.561-.269Zm6.606 7.974c-.974.042-.753 1.596.226 1.606.254 0 .512 0 .753-.024 2.973-.134 6.019.79 8.97 1.806.725.248 1.49.53 2.017 1.14a15.597 15.597 0 0 0-5.24-3.028 36.738 36.738 0 0 0-5.707-1.413 4.6 4.6 0 0 0-1.02-.087Zm19.885 28.917c.276 1.052 1.562.424 1.326-.644-.061-.28-.138-.555-.208-.817-.854-3.208-.814-6.758-.674-10.228.037-.855.089-1.758.484-2.485a20.1 20.1 0 0 0-1.304 6.469 50.58 50.58 0 0 0 .199 6.572c.025.383.085.763.177 1.133ZM9.695 7.786c-.584-.113-.627.845-.046.993.153.038.306.065.453.093 1.791.344 3.505 1.33 5.155 2.36a2.88 2.88 0 0 1 1.075.972 10.203 10.203 0 0 0-2.789-2.56 22.932 22.932 0 0 0-3.248-1.658 2.824 2.824 0 0 0-.6-.2ZM.665 33.209c-1.485.861-.23 3.222 1.295 2.44.398-.207.786-.438 1.16-.655 4.533-2.647 9.796-3.622 15-4.373 1.27-.183 2.626-.345 3.802.22-3.205-1.016-6.622-1.103-9.922-.668-3.3.434-6.51 1.36-9.688 2.343-.569.168-1.12.4-1.647.693ZM4.904 42.4c-1.065 1.12.613 2.443 1.718 1.378.306-.279.572-.575.839-.858 3.25-3.446 7.545-5.88 11.822-8.133 1.05-.555 5.372-1.117 6.523-1.085-3.012.303-9.165 1.378-11.902 2.757a64.284 64.284 0 0 0-7.763 4.907c-.44.3-.854.646-1.237 1.034Zm7.611 14.667c-.306 1.602 1.723 1.626 2.103.024.098-.417.177-.841.254-1.244.94-4.904 3.238-9.667 5.62-14.257.585-1.127 3.854-4.356 4.818-5.07-2.326 2.178-6.854 6.99-8.396 9.891A78.734 78.734 0 0 0 13 55.416c-.207.532-.37 1.085-.486 1.65ZM27.83.756C27.1-.912 25.026.46 25.687 2.169c.171.448.364.886.548 1.303 2.238 5.097 3.006 10.986 3.582 16.78.14 1.419.263 2.935-.252 4.241.937-3.566.918-7.006.593-10.693a86.337 86.337 0 0 0-1.75-11.21A10.594 10.594 0 0 0 27.83.755Zm9.003 8.488c.74-1.134 2.271.096 1.58 1.272-.181.306-.38.603-.567.889-2.28 3.446-3.465 7.674-4.482 11.837-.25 1.034-.492 2.11-.208 3.102-.407-2.702-.14-5.493.475-8.147.615-2.653 1.573-5.19 2.562-7.695a7.22 7.22 0 0 1 .64-1.258Zm21.912 4.818c1.53-.052 1.736 2.574.202 2.712-.401.038-.805.048-1.19.058-4.715.145-16.283 4.543-20.566 6.61-1.05.507-2.143 1.075-2.755 2.161 1.928-2.52 5.66-4.445 8.366-5.803 2.706-1.358 11.507-4.636 14.372-5.466a6.64 6.64 0 0 1 1.57-.272Zm-7.537 8.918c.97.042.753 1.596-.226 1.606-.255 0-.512 0-.757-.024-2.972-.134-6.015.79-8.966 1.806-.725.248-1.49.53-2.017 1.14a15.597 15.597 0 0 1 5.24-3.028 36.664 36.664 0 0 1 5.707-1.413 4.6 4.6 0 0 1 1.02-.087ZM49.436 7.786c.587-.113.63.845.049.993-.153.038-.306.065-.456.093-1.791.344-3.502 1.33-5.152 2.36a2.875 2.875 0 0 0-1.075.972 10.16 10.16 0 0 1 2.789-2.56 22.901 22.901 0 0 1 3.245-1.658c.194-.088.394-.155.6-.2Zm-15.226 46.1c-.132.655-.937.344-.83-.345a9.43 9.43 0 0 1 .095-.51c.41-1.992.26-4.152.055-6.261a3.474 3.474 0 0 0-.383-1.493 12.2 12.2 0 0 1 1.023 3.895 30.88 30.88 0 0 1 .107 4.014 4.1 4.1 0 0 1-.068.7Zm14.852-4.332c.456.872-.664.81-1.157-.062a12.163 12.163 0 0 1-.364-.69c-1.39-2.663-3.508-5.3-5.639-7.846a8.166 8.166 0 0 0-1.75-1.7 28.766 28.766 0 0 1 4.59 4.412c1.37 1.613 2.578 3.291 3.763 4.97.204.29.39.596.557.916Zm-40.646 0c-.456.872.667.81 1.16-.062.128-.227.248-.455.361-.69 1.39-2.663 3.508-5.3 5.642-7.846a8.15 8.15 0 0 1 1.748-1.7 29.022 29.022 0 0 0-4.592 4.412c-1.368 1.613-2.577 3.291-3.76 4.97a8.45 8.45 0 0 0-.56.916Zm14.864 4.332c.133.655.934.344.83-.345-.027-.175-.064-.344-.098-.51-.407-1.992-.26-4.152-.052-6.261a3.512 3.512 0 0 1 .38-1.493 12.15 12.15 0 0 0-1.022 3.895 30.881 30.881 0 0 0-.11 4.014c.004.236.028.47.073.7Zm21.466-39.552c.585-.117.627.844.046.99a8.035 8.035 0 0 1-.453.095c-1.791.345-3.505 1.33-5.155 2.358-.424.22-.793.553-1.075.972a10.19 10.19 0 0 1 2.789-2.557 23.328 23.328 0 0 1 3.248-1.662c.194-.088.395-.154.6-.196ZM39.29 1.48c.506-.345.864.52.374.9a8.18 8.18 0 0 1-.392.278c-1.545 1.072-2.807 2.709-3.994 4.356a3.338 3.338 0 0 0-.677 1.355 11.612 11.612 0 0 1 1.739-3.546 26.22 26.22 0 0 1 2.449-2.906 3.42 3.42 0 0 1 .502-.437Zm19.18 31.729c1.484.861.229 3.222-1.296 2.44-.398-.207-.79-.438-1.16-.655-4.537-2.647-9.796-3.622-15-4.373-1.27-.183-2.626-.345-3.802.22 3.205-1.016 6.619-1.103 9.922-.668 3.303.434 6.508 1.36 9.688 2.343a8.28 8.28 0 0 1 1.647.693ZM54.236 42.4c1.065 1.12-.613 2.443-1.718 1.378-.306-.279-.572-.575-.838-.858-3.26-3.45-7.546-5.893-11.832-8.147-1.05-.555-5.372-1.116-6.526-1.085 3.015.303 9.168 1.378 11.905 2.757a64.29 64.29 0 0 1 7.763 4.907c.444.304.861.655 1.246 1.048ZM41.66 58.897c.132 1.633-1.892 1.378-2.087-.273-.053-.427-.083-.858-.117-1.268-.386-5-2.143-10.049-3.98-14.939-.456-1.2-3.34-4.866-4.218-5.707 2.067 2.488 6.022 7.899 7.23 10.997a80.95 80.95 0 0 1 2.881 9.484c.144.557.242 1.128.291 1.706Z"/>
</svg>
