<svg xmlns="http://www.w3.org/2000/svg" width="21" height="21" fill="none" viewBox="0 0 21 21">
  <path fill="#333" d="M16.47 12.456a3.993 3.993 0 0 0-3.076 1.478l-5.091-2.346a3.642 3.642 0 0 0 0-2.257l5.091-2.346a3.993 3.993 0 1 0-.848-1.807L7.274 7.604a3.994 3.994 0 1 0 0 5.71l5.272 2.427a4.162 4.162 0 0 0-.07.709 3.993 3.993 0 1 0 3.993-3.994Zm0-9.984a1.997 1.997 0 1 1 0 3.993 1.997 1.997 0 0 1 0-3.993ZM4.488 12.456a1.997 1.997 0 1 1 0-3.993 1.997 1.997 0 0 1 0 3.993Zm11.98 5.99a1.997 1.997 0 1 1 0-3.993 1.997 1.997 0 0 1 0 3.994Z"/>
</svg>
