<svg xmlns="http://www.w3.org/2000/svg" width="40" height="40" fill="none" viewBox="0 0 40 40">
  <path fill="#FEE500" d="M0 0h40v40H0z"/>
  <circle cx="20" cy="20" r="20" fill="#D9D9D9"/>
  <circle cx="20" cy="20" r="20" fill="#FEE500"/>
  <path fill="#392020" d="M20.058 9.653c-6.223 0-11.24 4.014-11.24 8.888 0 3.163 2.087 5.933 5.218 7.515l-1.06 3.958a.338.338 0 0 0 .08.345.353.353 0 0 0 .233.088.338.338 0 0 0 .193-.08l4.56-3.075c.674.093 1.352.141 2.032.145 6.214 0 11.24-4.015 11.24-8.896 0-4.882-5.042-8.888-11.256-8.888Z"/>
  <path fill="#FEE500" d="M12.751 17.136h-1.228a.803.803 0 0 1-.434-.113.499.499 0 0 1-.225-.33.705.705 0 0 1 0-.128.499.499 0 0 1 .193-.417.803.803 0 0 1 .482-.153h3.701a.747.747 0 0 1 .434.12.465.465 0 0 1 .225.33c.003.04.003.08 0 .12a.514.514 0 0 1-.193.426.738.738 0 0 1-.474.145h-1.188v4.223a.648.648 0 0 1-.398.631.619.619 0 0 1-.253.043.65.65 0 0 1-.417-.136.603.603 0 0 1-.217-.362.66.66 0 0 1 0-.176l-.008-4.224Zm3.502-.828a.554.554 0 0 1 .233-.32.746.746 0 0 1 .401-.097h.305a.802.802 0 0 1 .426.104.658.658 0 0 1 .273.394l1.606 4.536c.041.118.076.24.104.361.003.051.003.102 0 .153a.536.536 0 0 1-.177.417.585.585 0 0 1-.433.177.554.554 0 0 1-.578-.37l-.338-.987h-2.111l-.337.988a.546.546 0 0 1-.587.369.554.554 0 0 1-.578-.458.74.74 0 0 1 0-.136.705.705 0 0 1 0-.24c0-.09.057-.186.089-.274l1.702-4.617Zm.803 1.052-.763 2.409h1.518l-.755-2.409Zm2.729-.794a.683.683 0 0 1 .176-.49.627.627 0 0 1 .474-.185.683.683 0 0 1 .418.137.61.61 0 0 1 .208.369.603.603 0 0 1 0 .169v4.223h2.208a.803.803 0 0 1 .434.12.49.49 0 0 1 .225.33v.12a.497.497 0 0 1-.193.417.803.803 0 0 1-.482.153H20.54a.802.802 0 0 1-.49-.129.618.618 0 0 1-.241-.401 1.986 1.986 0 0 1 0-.265l-.024-4.568Zm4.287 0a.714.714 0 0 1 .177-.49.706.706 0 0 1 .891-.048.617.617 0 0 1 .217.369c.004.056.004.113 0 .169v1.967l2.031-2.345c.079-.08.162-.155.25-.224a.514.514 0 0 1 .272-.073.69.69 0 0 1 .394.12.49.49 0 0 1 .208.322.12.12 0 0 1 0 .048.136.136 0 0 0 0 .056.49.49 0 0 1-.064.241c-.042.078-.094.15-.152.217l-1.333 1.461 1.606 2.49v.08c.083.114.148.242.192.377v.04a.577.577 0 0 1-.2.498.755.755 0 0 1-.466.152.633.633 0 0 1-.321-.072.802.802 0 0 1-.257-.281l-1.494-2.409-.714.747v1.34a.715.715 0 0 1-.177.49.65.65 0 0 1-.482.185.642.642 0 0 1-.409-.136.602.602 0 0 1-.217-.361.653.653 0 0 1 0-.177l.048-4.753Z"/>
</svg>
