<svg xmlns="http://www.w3.org/2000/svg" width="100%" height="100%" fill="none" viewBox="0 0 57 74">
  <path fill="#C4A5FA" d="M33.558.661C22.485 2.527 12.717 10.36 6.686 22.248 3.825 27.886 2.315 32.754 1.224 39.83c-.382 2.552-.452 3.513-.452 6.422 0 3.564.205 5.332.923 8.214 1.925 7.721 6.468 14.013 12.112 16.802 3.08 1.531 5.896 2.093 9.065 1.8 7.69-.686 14.54-4.231 20.636-10.672 6.72-7.114 11.344-16.947 12.854-27.28.382-2.585.652-7.643.536-9.717-.62-10.673-6.217-20.028-14.01-23.457C39.874.624 36.56.16 33.559.662Z"/>
</svg>
