<svg xmlns="http://www.w3.org/2000/svg" width="100%" height="100%" fill="none" viewBox="0 0 57 79">
  <path fill="#C4A5FA" d="M29.093.748C17.245 3.61 7.92 13.638 3.409 28.33 1.284 35.244.35 43.82 1.05 50.065c1.36 12.343 7.167 22.023 15.78 26.37 2.922 1.462 5.84 2.228 8.631 2.228 2.223 0 4.18-.399 6.418-1.3 13.51-5.442 22.854-19.35 24.877-37.043.35-3.109.266-9.174-.186-12.82-.662-5.43-1.445-8.33-3.249-12.08C50.484 9.541 46.5 5.193 41.624 2.697A18.766 18.766 0 0 0 32.91.414c-1.873-.047-2.372-.019-3.816.334Z"/>
</svg>
