<svg xmlns="http://www.w3.org/2000/svg" width="40" height="40" fill="none" viewBox="0 0 40 40">
  <path fill="#1877F2" d="M0 0h40v40H0z"/>
  <circle cx="20" cy="20" r="20" fill="#D9D9D9"/>
  <g clip-path="url(#a)">
    <path fill="#1877F2" d="M40 20C40 8.954 31.046 0 20 0S0 8.954 0 20c0 9.982 7.314 18.257 16.875 19.757V25.781h-5.078V20h5.078v-4.406c0-5.013 2.986-7.781 7.554-7.781 2.188 0 4.477.39 4.477.39v4.922h-2.522c-2.484 0-3.259 1.542-3.259 3.125V20h5.547l-.887 5.781h-4.66v13.976C32.686 38.257 40 29.982 40 20Z"/>
    <path fill="#fff" d="M27.785 25.781 28.672 20h-5.547v-3.75c0-1.582.775-3.125 3.26-3.125h2.521V8.203s-2.288-.39-4.477-.39c-4.568 0-7.554 2.768-7.554 7.78V20h-5.078v5.781h5.078v13.976c2.07.324 4.18.324 6.25 0V25.781h4.66Z"/>
  </g>
  <defs>
    <clipPath id="a">
      <path fill="#fff" d="M0 0h40v40H0z"/>
    </clipPath>
  </defs>
</svg>
