<svg xmlns="http://www.w3.org/2000/svg" width="100%" height="100%" fill="none" viewBox="0 0 58 76">
  <path fill="#C4A5FA" d="M21.153.623C14.368 1.82 8.18 6.84 4.423 14.219.893 21.119-.07 30.822 1.76 41.012c2.33 12.993 9.13 23.948 18.81 30.269 2.13 1.392 5.653 3.095 8.048 3.87 1.697.552 2.13.617 4.008.696 2.498.097 4.279-.126 6.455-.808a21.044 21.044 0 0 0 8.734-5.234c5.136-5.007 8.333-12.538 9.078-21.438.299-3.657-.032-9.104-.848-13.364C53.138 19.578 44.572 7.458 33.093 2.548 28.62.637 24.677.005 21.153.623Z"/>
</svg>
