<svg xmlns="http://www.w3.org/2000/svg" width="40" height="40" fill="none" viewBox="0 0 40 40">
  <circle cx="20" cy="20" r="20" fill="#D9D9D9"/>
  <path fill="#D9D9D9" d="M0 0h40v40H0V0Z"/>
  <path fill="#A5B3FA" d="M0 0h40v40H0V0Z"/>
  <path fill="#A5B3FA" d="M20 40c11.046 0 20-8.954 20-20S31.046 0 20 0 0 8.954 0 20s8.954 20 20 20Z"/>
  <mask id="a" width="22" height="22" x="9" y="9" maskUnits="userSpaceOnUse" style="mask-type:luminance">
    <path fill="#fff" d="M9.5 9.5h21v21h-21v-21Z"/>
  </mask>
  <g mask="url(#a)">
    <path fill="#A5B3FA" d="M9.5 9.5h21v21h-21v-21Z"/>
    <path fill="#fff" d="M16.5 15.625h9.625v12.25H16.5v-12.25Z"/>
    <path fill="#fff" d="M23.5 10.375H13a1.755 1.755 0 0 0-1.75 1.75v12.25H13v-12.25h10.5v-1.75Zm2.625 3.5H16.5a1.755 1.755 0 0 0-1.75 1.75v12.25a1.755 1.755 0 0 0 1.75 1.75h9.625a1.755 1.755 0 0 0 1.75-1.75v-12.25a1.755 1.755 0 0 0-1.75-1.75Zm0 14H16.5v-12.25h9.625v12.25Z"/>
  </g>
</svg>
