<svg xmlns="http://www.w3.org/2000/svg" width="100%" fill="none" viewBox="0 0 710 661">
  <path fill="#E3D8EC" fill-opacity=".3" fill-rule="evenodd" d="M103.588 392.47c-5.577-5.852-5.132-14.87.995-20.144l3.099-2.668c6.126-5.273 15.613-4.805 21.19 1.046 5.577 5.851 5.132 14.87-.994 20.144l-3.099 2.668c-6.126 5.273-15.614 4.805-21.191-1.046Zm390.816-259.561c-5.577-5.851-5.132-14.869.994-20.143l3.099-2.668c6.126-5.274 15.614-4.805 21.191 1.046 5.577 5.851 5.132 14.87-.994 20.143l-3.1 2.668c-6.126 5.274-15.613 4.806-21.19-1.046ZM188.115 550.552c-5.58-5.854-5.134-14.878.995-20.155l18.28-15.736c6.129-5.277 15.622-4.808 21.202 1.046 5.58 5.855 5.135 14.879-.995 20.155l-18.279 15.737c-6.13 5.276-15.622 4.808-21.203-1.047Zm399.262-266.833c-5.58-5.855-5.135-14.878.995-20.155l18.28-15.736c6.129-5.277 15.622-4.809 21.202 1.046 5.58 5.855 5.135 14.878-.995 20.155l-18.28 15.736c-6.129 5.277-15.622 4.809-21.202-1.046Zm-314.2 270.542c-5.588-5.864-5.142-14.901.996-20.186L557.62 290.026c6.138-5.285 15.643-4.816 21.231 1.048 5.588 5.863 5.142 14.901-.996 20.186L294.408 555.308c-6.138 5.285-15.643 4.816-21.231-1.047Zm113.763-21.003c-5.587-5.862-5.141-14.898.996-20.182l183.782-158.234c6.138-5.284 15.642-4.815 21.229 1.048s5.141 14.899-.996 20.183L408.168 534.306c-6.137 5.284-15.641 4.815-21.228-1.048Zm-149.82-24.906c-5.588-5.864-5.142-14.902.996-20.187L572.241 200.48c6.138-5.285 15.644-4.816 21.232 1.048 5.588 5.864 5.142 14.902-.996 20.187L258.352 509.4c-6.138 5.285-15.644 4.816-21.232-1.048ZM130.955 522.81c-5.588-5.865-5.142-14.903.997-20.188L557.298 136.39c6.138-5.286 15.645-4.816 21.233 1.048 5.588 5.864 5.142 14.902-.996 20.188L152.188 523.858c-6.138 5.285-15.645 4.816-21.233-1.048Zm6.439-159.454c-5.588-5.864-5.142-14.901.996-20.185l266.554-229.504c6.138-5.285 15.643-4.816 21.231 1.048 5.587 5.863 5.141 14.9-.997 20.185L158.624 364.404c-6.137 5.284-15.643 4.815-21.23-1.048Zm41.649-112.818c-5.587-5.861-5.141-14.896.996-20.179l136.485-117.51c6.137-5.283 15.64-4.814 21.226 1.048 5.586 5.861 5.14 14.896-.996 20.179l-136.486 117.51c-6.136 5.283-15.639 4.814-21.225-1.048Zm-52.892 199.454c-5.588-5.864-5.142-14.902.996-20.187l337.504-290.594c6.138-5.285 15.644-4.816 21.232 1.048 5.588 5.864 5.142 14.902-.997 20.187L147.383 451.04c-6.138 5.285-15.644 4.816-21.232-1.048Z" clip-rule="evenodd"/>
</svg>
