<svg xmlns="http://www.w3.org/2000/svg" width="100%" height="100%" fill="none" viewBox="0 0 96 50">
  <path fill="#333" d="M53.675 1.73c0-.683-.563-1.237-1.258-1.237-.695 0-1.258.554-1.258 1.238v18.527c.004.342.15.68.434.922.524.446 1.316.39 1.77-.126l7.16-8.142 7.144 8.123c.462.526 1.27.583 1.804.129.534-.455.593-1.25.13-1.776l-7.387-8.4 7.393-8.407a1.221 1.221 0 0 0-.128-1.742 1.269 1.269 0 0 0-1.77.126l-7.872 8.953a1.284 1.284 0 0 0-.489.556l-5.673 6.452V1.73ZM78.007.493h-.01c-.695 0-1.258.554-1.258 1.238v18.195a1.244 1.244 0 0 0-.033.285 1.27 1.27 0 0 0 1.28 1.259h16.2c.706 0 1.279-.564 1.279-1.259s-.573-1.258-1.28-1.258H80.79l9.977-11.346a1.238 1.238 0 0 0-.13-1.766 1.287 1.287 0 0 0-1.794.127l-9.588 10.904V3.01h14.964c.706 0 1.279-.563 1.279-1.258a1.27 1.27 0 0 0-1.28-1.259h-16.21Z"/>
  <path fill="#333" fill-rule="evenodd" d="M73.329 28.602c1.883 0 3.41-1.503 3.41-3.357 0-1.853-1.527-3.356-3.41-3.356-1.884 0-3.41 1.503-3.41 3.357 0 1.853 1.526 3.356 3.41 3.356Zm0-2.517a.846.846 0 0 0 .852-.84.846.846 0 0 0-.852-.839.846.846 0 0 0-.853.84c0 .463.382.839.853.839Z" clip-rule="evenodd"/>
  <path fill="#333" d="M94.219 31.538H79.255V45.4l9.588-10.904a1.287 1.287 0 0 1 1.794-.127c.532.453.59 1.243.13 1.766L80.79 47.481h13.396c.706 0 1.279.563 1.279 1.258a1.27 1.27 0 0 1-1.28 1.259h-16.2a1.269 1.269 0 0 1-1.279-1.259c0-.098.012-.193.033-.285V30.26c0-.684.563-1.238 1.258-1.238h16.221c.707 0 1.28.564 1.28 1.259s-.573 1.258-1.28 1.258Zm-41.802-2.517h16.221c.707 0 1.28.564 1.28 1.259s-.573 1.258-1.28 1.258H53.676V45.4l9.588-10.904a1.287 1.287 0 0 1 1.794-.127c.532.453.59 1.243.13 1.766L55.21 47.481h13.395c.706 0 1.279.563 1.279 1.258a1.27 1.27 0 0 1-1.28 1.259h-16.2a1.269 1.269 0 0 1-1.279-1.259c0-.098.012-.193.033-.285V30.26c0-.684.563-1.238 1.258-1.238Zm-25.58 0H43.06c.707 0 1.28.564 1.28 1.259s-.573 1.258-1.28 1.258H29.658l14.36 16.33a1.247 1.247 0 0 1-.13 1.776 1.293 1.293 0 0 1-1.805-.128L28.095 33.608V48.76c0 .684-.563 1.238-1.258 1.238a1.248 1.248 0 0 1-1.257-1.238v-18.5c0-.684.563-1.238 1.257-1.238Zm-16.179 2.517h6.822c.706 0 1.279-.563 1.279-1.258a1.27 1.27 0 0 0-1.28-1.259H1.28c-.707 0-1.28.564-1.28 1.259s.573 1.258 1.279 1.258H8.1v17.203A1.27 1.27 0 0 0 9.38 50c.706 0 1.278-.563 1.278-1.259V31.538Z"/>
  <path fill="#333" fill-rule="evenodd" d="M51.16 25.245c0 1.854-1.528 3.357-3.411 3.357-1.884 0-3.41-1.503-3.41-3.357 0-1.853 1.526-3.356 3.41-3.356 1.883 0 3.41 1.503 3.41 3.357Zm-2.559 0c0 .464-.381.84-.852.84a.846.846 0 0 1-.853-.84c0-.463.382-.839.853-.839.47 0 .852.376.852.84ZM26.933.497A1.248 1.248 0 0 0 25.58 1.73v15.64a1.243 1.243 0 0 0 0 .645v2.216c0 .684.564 1.238 1.258 1.238.695 0 1.258-.554 1.258-1.238v-1.28h12.198l1.79 2.036c.462.526 1.27.583 1.804.128.534-.455.593-1.25.13-1.775L27.827.93a1.283 1.283 0 0 0-.894-.433ZM38.08 16.435 28.095 5.08v11.355h9.985Z" clip-rule="evenodd"/>
  <path fill="#333" d="M16.366 20.831 2.516 5.08v15.152c0 .684-.564 1.238-1.258 1.238A1.248 1.248 0 0 1 0 20.232V1.731A1.248 1.248 0 0 1 1.352.497c.334.018.66.164.897.433L16.2 16.796V1.752A1.27 1.27 0 0 1 17.48.493c.706 0 1.278.564 1.278 1.259v18.46c0 .694-.572 1.258-1.279 1.258-.477 0-.893-.258-1.113-.639Z"/>
  <path fill="#333" fill-rule="evenodd" d="M25.58 25.245c0 1.854-1.527 3.357-3.41 3.357-1.884 0-3.411-1.503-3.411-3.357 0-1.853 1.527-3.356 3.41-3.356 1.884 0 3.411 1.503 3.411 3.357Zm-2.558 0c0 .464-.381.84-.852.84a.846.846 0 0 1-.853-.84c0-.463.382-.839.852-.839.471 0 .853.376.853.84Z" clip-rule="evenodd"/>
  <path fill="#ED02D0" d="M44.011 31.127a1.245 1.245 0 0 0-.13-1.775 1.293 1.293 0 0 0-1.804.128l-7.967 9.06a1.245 1.245 0 0 0 .13 1.775 1.294 1.294 0 0 0 1.804-.128l7.967-9.06Z"/>
  <path fill="#2D0ED0" d="M18.431 2.599a1.245 1.245 0 0 0-.13-1.775 1.293 1.293 0 0 0-1.804.128l-7.967 9.06a1.245 1.245 0 0 0 .13 1.775 1.293 1.293 0 0 0 1.804-.128l7.967-9.06Z"/>
</svg>
