<svg xmlns="http://www.w3.org/2000/svg" width="10" height="6" fill="none" viewBox="0 0 10 6">
  <path fill="#333" d="M5.62.181a.13.13 0 0 0-.131-.13.13.13 0 0 0-.132.13v1.94c0 .036.016.072.046.097.054.047.137.04.185-.013l.75-.853.748.85a.135.135 0 0 0 .189.014.13.13 0 0 0 .013-.186l-.773-.88.774-.88a.128.128 0 0 0-.014-.182A.133.133 0 0 0 7.09.1l-.824.938a.136.136 0 0 0-.051.058l-.594.675V.182ZM8.169.052h-.002a.13.13 0 0 0-.131.13v1.905a.133.133 0 0 0 .13.162h1.697a.133.133 0 0 0 .134-.133.133.133 0 0 0-.134-.131H8.46L9.505.797A.13.13 0 0 0 9.49.612a.135.135 0 0 0-.188.013L8.3 1.767V.315h1.567A.133.133 0 0 0 10 .183a.133.133 0 0 0-.134-.131H8.17Z"/>
  <path fill="#333" fill-rule="evenodd" d="M7.679 2.995a.354.354 0 0 0 .357-.351.354.354 0 0 0-.357-.352.354.354 0 0 0-.358.352c0 .194.16.351.358.351Zm0-.264a.088.088 0 0 0 .089-.087.089.089 0 0 0-.09-.088.089.089 0 0 0-.089.088c0 .048.04.087.09.087Z" clip-rule="evenodd"/>
  <path fill="#333" d="M9.866 3.303H8.3v1.451l1.004-1.142a.135.135 0 0 1 .188-.013.13.13 0 0 1 .014.185L8.46 4.972h1.403c.074 0 .134.059.134.132 0 .073-.06.132-.134.132H8.166a.133.133 0 0 1-.13-.162V3.169a.13.13 0 0 1 .131-.13h1.699c.074 0 .134.059.134.132 0 .073-.06.132-.134.132Zm-4.377-.264h1.698c.074 0 .134.059.134.132 0 .073-.06.132-.134.132H5.621v1.451l1.003-1.142a.135.135 0 0 1 .188-.013.13.13 0 0 1 .014.185L5.781 4.972h1.403c.074 0 .134.059.134.132 0 .073-.06.132-.134.132H5.488a.133.133 0 0 1-.13-.162V3.169a.13.13 0 0 1 .13-.13Zm-2.679 0h1.7c.074 0 .134.059.134.132 0 .073-.06.132-.134.132H3.106l1.503 1.71a.13.13 0 0 1-.013.185.135.135 0 0 1-.19-.013L2.943 3.52v1.587a.13.13 0 0 1-.132.13.13.13 0 0 1-.131-.13V3.169a.13.13 0 0 1 .131-.13Zm-1.694.264h.714a.133.133 0 0 0 .134-.132.133.133 0 0 0-.134-.132H.134A.133.133 0 0 0 0 3.171c0 .073.06.132.134.132h.714v1.8c0 .074.06.133.134.133a.133.133 0 0 0 .134-.132V3.303Z"/>
  <path fill="#333" fill-rule="evenodd" d="M5.357 2.644c0 .194-.16.351-.357.351a.354.354 0 0 1-.357-.351c0-.195.16-.352.357-.352.197 0 .357.157.357.352Zm-.268 0c0 .048-.04.087-.089.087a.088.088 0 0 1-.09-.087c0-.049.04-.088.09-.088.05 0 .09.04.09.088ZM2.82.052h-.01a.13.13 0 0 0-.131.13v1.637a.13.13 0 0 0 0 .068v.232c0 .071.059.13.131.13a.13.13 0 0 0 .132-.13v-.134h1.277l.188.213a.135.135 0 0 0 .189.013.13.13 0 0 0 .013-.186L2.914.097A.134.134 0 0 0 2.82.052Zm1.168 1.669L2.942.532v1.189h1.046Z" clip-rule="evenodd"/>
  <path fill="#333" d="M1.714 2.181.264.531V2.12a.13.13 0 0 1-.132.13A.13.13 0 0 1 0 2.12V.18A.13.13 0 0 1 .142.052a.133.133 0 0 1 .093.045L1.696 1.76V.183c0-.072.06-.131.134-.131.074 0 .134.059.134.131v1.933c0 .073-.06.132-.134.132a.134.134 0 0 1-.116-.067Z"/>
  <path fill="#333" fill-rule="evenodd" d="M2.679 2.644c0 .194-.16.351-.358.351a.354.354 0 0 1-.357-.351c0-.195.16-.352.357-.352.198 0 .358.157.358.352Zm-.268 0c0 .048-.04.087-.09.087a.088.088 0 0 1-.089-.087c0-.049.04-.088.09-.088.049 0 .089.04.089.088Z" clip-rule="evenodd"/>
  <path fill="#ED02D0" d="M4.609 3.26a.13.13 0 0 0-.014-.186.135.135 0 0 0-.189.013l-.834.949a.13.13 0 0 0 .013.186c.056.047.14.041.19-.014l.834-.949Z"/>
  <path fill="#2D0ED0" d="M1.93.272a.13.13 0 0 0-.014-.186.135.135 0 0 0-.189.014l-.834.948a.13.13 0 0 0 .014.186c.056.048.14.042.189-.013L1.93.272Z"/>
</svg>
