<svg xmlns="http://www.w3.org/2000/svg" width="59" height="59" fill="none" viewBox="0 0 59 59">
  <path fill="#D8E5EC" fill-opacity=".2" fill-rule="evenodd" d="M8.619 34.86a1.259 1.259 0 0 1 .087-1.776l.235-.212a1.255 1.255 0 0 1 1.774.087c.466.515.427 1.31-.088 1.777l-.234.213a1.255 1.255 0 0 1-1.774-.088Zm32.375-22.572a1.259 1.259 0 0 1 .087-1.777l.235-.212a1.255 1.255 0 0 1 1.774.087 1.26 1.26 0 0 1-.088 1.777l-.234.212a1.255 1.255 0 0 1-1.774-.087Zm-25.26 36.483a1.259 1.259 0 0 1 .088-1.776l1.492-1.354a1.255 1.255 0 0 1 1.774.088c.466.514.427 1.31-.088 1.776l-1.492 1.354a1.255 1.255 0 0 1-1.774-.088Zm33.072-23.207a1.259 1.259 0 0 1 .088-1.776l1.492-1.354a1.255 1.255 0 0 1 1.774.088c.466.515.427 1.31-.087 1.776l-1.493 1.354a1.255 1.255 0 0 1-1.774-.088ZM22.81 49.14a1.259 1.259 0 0 1 .088-1.776L46.333 26.11a1.255 1.255 0 0 1 1.774.088 1.26 1.26 0 0 1-.088 1.776L24.584 49.228a1.255 1.255 0 0 1-1.774-.088Zm9.453-1.785a1.259 1.259 0 0 1 .088-1.776L47.54 31.803a1.255 1.255 0 0 1 1.774.088c.466.515.426 1.31-.088 1.776L34.037 47.443a1.255 1.255 0 0 1-1.774-.088Zm-12.476-2.26a1.259 1.259 0 0 1 .087-1.776l27.628-25.057a1.255 1.255 0 0 1 1.774.088c.466.515.426 1.31-.088 1.776L21.561 45.183a1.255 1.255 0 0 1-1.774-.088Zm-8.825 1.215a1.259 1.259 0 0 1 .088-1.776l35.175-31.901a1.255 1.255 0 0 1 1.774.087 1.26 1.26 0 0 1-.088 1.777l-35.175 31.9a1.255 1.255 0 0 1-1.774-.087Zm.453-13.984a1.259 1.259 0 0 1 .088-1.777l22.038-19.986a1.255 1.255 0 0 1 1.774.088 1.26 1.26 0 0 1-.088 1.776L13.19 32.413a1.255 1.255 0 0 1-1.775-.087Zm3.405-9.876a1.259 1.259 0 0 1 .088-1.776l11.275-10.227a1.255 1.255 0 0 1 1.774.088c.466.515.427 1.31-.087 1.776L16.594 22.538a1.255 1.255 0 0 1-1.774-.088Zm-4.295 17.47a1.259 1.259 0 0 1 .088-1.776l27.907-25.31a1.255 1.255 0 0 1 1.774.087 1.26 1.26 0 0 1-.088 1.777L12.3 40.008a1.255 1.255 0 0 1-1.774-.088Z" clip-rule="evenodd"/>
</svg>
